<svg width="96" height="96" xmlns="http://www.w3.org/2000/svg" xmlns:xlink="http://www.w3.org/1999/xlink" xml:space="preserve" overflow="hidden"><g transform="translate(-920 -232)"><g><path d="M943 246 993 246 993 314 943 314 943 246ZM937 320 999 320 999 240 937 240 937 320Z" fill="#FFFFFF" fill-rule="nonzero" fill-opacity="1"/><path d="M950 252 958 252 958 260 950 260Z" fill="#FFFFFF" fill-rule="nonzero" fill-opacity="1"/><path d="M966 254 986 254 986 258 966 258Z" fill="#FFFFFF" fill-rule="nonzero" fill-opacity="1"/><path d="M950 268 958 268 958 276 950 276Z" fill="#FFFFFF" fill-rule="nonzero" fill-opacity="1"/><path d="M966 270 986 270 986 274 966 274Z" fill="#FFFFFF" fill-rule="nonzero" fill-opacity="1"/><path d="M950 284 958 284 958 292 950 292Z" fill="#FFFFFF" fill-rule="nonzero" fill-opacity="1"/><path d="M966 286 986 286 986 290 966 290Z" fill="#FFFFFF" fill-rule="nonzero" fill-opacity="1"/><path d="M950 300 958 300 958 308 950 308Z" fill="#FFFFFF" fill-rule="nonzero" fill-opacity="1"/><path d="M966 302 986 302 986 306 966 306Z" fill="#FFFFFF" fill-rule="nonzero" fill-opacity="1"/></g></g></svg>