<svg width="32" height="31" xmlns="http://www.w3.org/2000/svg" xmlns:xlink="http://www.w3.org/1999/xlink" xml:space="preserve" overflow="hidden"><g transform="translate(-885 -2)"><g><g><g><g><path d="M15 3.125C8.4375 3.125 3.125 8.4375 3.125 15 3.125 21.5625 8.4375 26.875 15 26.875 21.5625 26.875 26.875 21.5625 26.875 15 26.875 8.4375 21.5625 3.125 15 3.125ZM14.375 6.25C15.25 6.25 15.9375 6.9375 15.9375 7.8125 15.9375 8.6875 15.25 9.375 14.375 9.375 13.5 9.375 12.8125 8.6875 12.8125 7.8125 12.8125 6.9375 13.5 6.25 14.375 6.25ZM18.125 23.75 11.875 23.75 11.875 21.875 14.0625 21.875 14.0625 12.5 12.1875 12.5 12.1875 10.625 15.9375 10.625 15.9375 12.5 15.9375 21.875 18.125 21.875 18.125 23.75Z" fill="#FFFFFF" fill-rule="nonzero" fill-opacity="1" transform="matrix(1.03333 0 0 1 886 3)"/></g></g></g></g></g></svg>