<?xml version="1.0" encoding="utf-8"?>
<!-- Generator: Adobe Illustrator 26.2.1, SVG Export Plug-In . SVG Version: 6.00 Build 0)  -->
<svg version="1.1" id="Layer_1" xmlns="http://www.w3.org/2000/svg" xmlns:xlink="http://www.w3.org/1999/xlink" x="0px" y="0px"
	 viewBox="0 0 127.3 150.9" style="enable-background:new 0 0 127.3 150.9;" xml:space="preserve">
<style type="text/css">
	.st0{fill:url(#SVGID_1_);}
	.st1{clip-path:url(#SVGID_00000182487399445526718510000012749443395960562105_);}
	.st2{fill:#FFFFFF;}
	.st3{fill:url(#SVGID_00000110437036037801943900000018197989773135414709_);}
</style>
<g>
	<g>
		<linearGradient id="SVGID_1_" gradientUnits="userSpaceOnUse" x1="71.3339" y1="44.1737" x2="108.2634" y2="97.2836">
			<stop  offset="0.2388" style="stop-color:#00F796"/>
			<stop  offset="0.2806" style="stop-color:#00F295"/>
			<stop  offset="0.3317" style="stop-color:#00E394"/>
			<stop  offset="0.3878" style="stop-color:#00CA92"/>
			<stop  offset="0.447" style="stop-color:#00A78E"/>
			<stop  offset="0.4813" style="stop-color:#00908C"/>
			<stop  offset="0.6823" style="stop-color:#00D093"/>
			<stop  offset="0.7956" style="stop-color:#00EF96"/>
			<stop  offset="0.8254" style="stop-color:#00EA95"/>
			<stop  offset="0.8628" style="stop-color:#00DA94"/>
			<stop  offset="0.9041" style="stop-color:#00C191"/>
			<stop  offset="0.9481" style="stop-color:#009D8D"/>
			<stop  offset="0.9625" style="stop-color:#00908C"/>
		</linearGradient>
		<path class="st0" d="M62.5,42.2v24.5c0,0.8,0.4,1.5,1,1.9l40.2,26.5l14.6-9.7c1.8-1.2,2.6-2.1,2.9-3.2c0.2-0.6,0.3-1.4-0.2-2.5
			c-0.3-0.7-0.9-1.4-1.6-1.9L64,41.4c-0.2-0.1-0.3-0.2-0.5-0.2C62.9,41.2,62.5,41.6,62.5,42.2"/>
		<g>
			<g>
				<defs>
					<path id="SVGID_00000171707889121674174180000009648668983492248230_" d="M83.1,93.9L123,120c0.7,0.4,1,1.2,1,1.9v24.5
						c0,0.7-0.8,1.2-1.5,0.8l-54.8-36.1c-0.1,0-0.4-0.3-0.4-0.4c-1.9-1.9-3.1-4.8,1.3-7.5L83.1,93.9z"/>
				</defs>
				<clipPath id="SVGID_00000139288795359399926130000009318787797904236730_">
					<use xlink:href="#SVGID_00000171707889121674174180000009648668983492248230_"  style="overflow:visible;"/>
				</clipPath>
				<g style="clip-path:url(#SVGID_00000139288795359399926130000009318787797904236730_);">
					<g>
						<defs>
							<rect id="SVGID_00000102521762838154530130000001644663097316220861_" x="60.6" y="88.9" width="68.5" height="63.5"/>
						</defs>
						<clipPath id="SVGID_00000055690989321887149060000007164957017243397298_">
							<use xlink:href="#SVGID_00000102521762838154530130000001644663097316220861_"  style="overflow:visible;"/>
						</clipPath>
						<g style="clip-path:url(#SVGID_00000055690989321887149060000007164957017243397298_);">
							
								<image style="overflow:visible;" width="143" height="133" xlink:href="3592048A52B39AD5.jpg"  transform="matrix(0.48 0 0 0.48 60.52 88.9)">
							</image>
						</g>
					</g>
				</g>
			</g>
		</g>
		<path class="st2" d="M121.6,37.5L76.2,7.7c-6.6-4.3-15.1-4.3-21.7,0l-43,28.3C6,39.6,2.7,45.7,2.7,52.3v47.1
			c0,6.6,3.3,12.7,8.8,16.3l37.6,24.8c2.6,1.7,5.6,2.6,8.7,2.6h10.1c3.1,0,6.2-0.9,8.8-2.7l7.2-4.8L28.6,99.3
			c-1.7-1.1-2.8-3.1-2.8-5.2V57.6c0-2.1,1-4,2.8-5.2l33.3-21.9c2.1-1.4,4.8-1.4,6.9,0l34.7,22.8L64.7,78.2c-1.4,0.9-2.3,2.5-2.3,4.1
			l0,21.7v0c0,0,0,0,0,0l0,0.3c0,0.2,0,0.4,0,0.7c0,0.1,0,0.3,0.1,0.4c0,0,0,0.1,0,0.1c0,0,0,0,0,0c0.3,1.9,1.4,3,3,4.1l2.2,1.5
			c0,0-5.5-4.2,0.9-8v0l52.9-34.1c1.7-1.1,2.8-3.1,2.8-5.2V42.7C124.4,40.6,123.3,38.7,121.6,37.5z"/>
		
			<linearGradient id="SVGID_00000036972495796675386070000006579868854537476227_" gradientUnits="userSpaceOnUse" x1="-2089.1575" y1="139.9089" x2="-2135.8823" y2="82.8053" gradientTransform="matrix(-1 0 0 1 -2016.2158 0)">
			<stop  offset="0" style="stop-color:#00908C"/>
			<stop  offset="4.881667e-02" style="stop-color:#00AC8F"/>
			<stop  offset="0.149" style="stop-color:#00E294"/>
			<stop  offset="0.1978" style="stop-color:#00F796"/>
			<stop  offset="0.6042" style="stop-color:#00F796"/>
			<stop  offset="0.6421" style="stop-color:#00F69F"/>
			<stop  offset="0.7045" style="stop-color:#00F4B8"/>
			<stop  offset="0.7655" style="stop-color:#00F2D7"/>
		</linearGradient>
		<path style="fill:url(#SVGID_00000036972495796675386070000006579868854537476227_);" d="M63.2,122l55.3-36.7
			c5.8-3.9,0.9-7.4,0.9-7.4l2.2,1.5c1.3,0.9,2.4,2.4,2.4,3.8l0,22.3c0,1.8-0.9,3.4-2.3,4.4l-37.8,25.9L63.2,122z"/>
	</g>
</g>
</svg>
