<svg width="31" height="31" xmlns="http://www.w3.org/2000/svg" xmlns:xlink="http://www.w3.org/1999/xlink" xml:space="preserve" overflow="hidden"><g transform="translate(-673 -2)"><g><g><g><g><path d="M697.75 8.625C697.75 10.0057 693.833 11.125 689 11.125 684.167 11.125 680.25 10.0057 680.25 8.625 680.25 7.24429 684.167 6.125 689 6.125 693.833 6.125 697.75 7.24429 697.75 8.625Z" fill="#FFFFFF" fill-rule="nonzero" fill-opacity="1"/><path d="M695.25 14.875C694.875 14.875 694.625 14.625 694.625 14.25 694.625 13.875 694.875 13.625 695.25 13.625 695.625 13.625 695.875 13.875 695.875 14.25 695.875 14.625 695.625 14.875 695.25 14.875ZM689 12.375C684.188 12.375 680.25 11.25 680.25 9.875L680.25 14.875C680.25 16.25 684.188 17.375 689 17.375 693.812 17.375 697.75 16.25 697.75 14.875L697.75 9.875C697.75 11.25 693.812 12.375 689 12.375Z" fill="#FFFFFF" fill-rule="nonzero" fill-opacity="1"/><path d="M695.25 21.125C694.875 21.125 694.625 20.875 694.625 20.5 694.625 20.125 694.875 19.875 695.25 19.875 695.625 19.875 695.875 20.125 695.875 20.5 695.875 20.875 695.625 21.125 695.25 21.125ZM689 18.625C684.188 18.625 680.25 17.5 680.25 16.125L680.25 21.125C680.25 22.5 684.188 23.625 689 23.625 693.812 23.625 697.75 22.5 697.75 21.125L697.75 16.125C697.75 17.5 693.812 18.625 689 18.625Z" fill="#FFFFFF" fill-rule="nonzero" fill-opacity="1"/><path d="M695.25 27.375C694.875 27.375 694.625 27.125 694.625 26.75 694.625 26.375 694.875 26.125 695.25 26.125 695.625 26.125 695.875 26.375 695.875 26.75 695.875 27.125 695.625 27.375 695.25 27.375ZM689 24.875C684.188 24.875 680.25 23.75 680.25 22.375L680.25 27.375C680.25 28.75 684.188 29.875 689 29.875 693.812 29.875 697.75 28.75 697.75 27.375L697.75 22.375C697.75 23.75 693.812 24.875 689 24.875Z" fill="#FFFFFF" fill-rule="nonzero" fill-opacity="1"/></g></g></g></g></g></svg>