<?xml version="1.0" encoding="utf-8"?>
<!-- Generator: Adobe Illustrator 26.2.1, SVG Export Plug-In . SVG Version: 6.00 Build 0)  -->
<svg version="1.1" id="Layer_1" xmlns="http://www.w3.org/2000/svg" xmlns:xlink="http://www.w3.org/1999/xlink" x="0px" y="0px"
	 viewBox="0 0 127.3 151.9" style="enable-background:new 0 0 127.3 151.9;" xml:space="preserve">
<style type="text/css">
	.st0{fill:url(#SVGID_1_);}
	.st1{fill:url(#SVGID_00000172433173071471447720000016354805217947540874_);}
	.st2{fill:#386CB4;}
	.st3{fill:url(#SVGID_00000124864481186832004510000000006301762127404423_);}
</style>
<g>
	
		<linearGradient id="SVGID_1_" gradientUnits="userSpaceOnUse" x1="71.805" y1="107.248" x2="108.7344" y2="54.1381" gradientTransform="matrix(1 0 0 -1 0 151.89)">
		<stop  offset="0.2388" style="stop-color:#6BBB81"/>
		<stop  offset="0.3014" style="stop-color:#64B683"/>
		<stop  offset="0.3781" style="stop-color:#4EAA87"/>
		<stop  offset="0.4618" style="stop-color:#20968B"/>
		<stop  offset="0.4813" style="stop-color:#06908C"/>
		<stop  offset="0.5989" style="stop-color:#38A08A"/>
		<stop  offset="0.7956" style="stop-color:#63B983"/>
		<stop  offset="0.8385" style="stop-color:#5CB585"/>
		<stop  offset="0.8922" style="stop-color:#47A889"/>
		<stop  offset="0.9516" style="stop-color:#1B948C"/>
		<stop  offset="0.9625" style="stop-color:#06908C"/>
	</linearGradient>
	<path class="st0" d="M62.9,42.6v24.5c0,0.8,0.4,1.5,1,1.9l40.2,26.5l14.6-9.7c1.8-1.2,2.6-2.1,2.9-3.2c0.2-0.6,0.3-1.4-0.2-2.5
		c-0.3-0.7-0.9-1.4-1.6-1.9L64.3,41.7c-0.2-0.1-0.3-0.2-0.5-0.2C63.4,41.7,62.9,42.1,62.9,42.6"/>
	
		<linearGradient id="SVGID_00000088122821177388054890000002065638399038634120_" gradientUnits="userSpaceOnUse" x1="73.7824" y1="51.3723" x2="125.6792" y2="14.7089" gradientTransform="matrix(1 0 0 -1 0 151.89)">
		<stop  offset="1.714146e-02" style="stop-color:#284395"/>
		<stop  offset="9.093943e-02" style="stop-color:#294697"/>
		<stop  offset="1" style="stop-color:#386CB4"/>
	</linearGradient>
	<path style="fill:url(#SVGID_00000088122821177388054890000002065638399038634120_);" d="M83.6,94.4l39.9,26.1c0.7,0.4,1,1.2,1,1.9
		V147c0,0.7-0.8,1.2-1.5,0.8l-54.8-36.1c-0.1,0-0.4-0.3-0.4-0.4c-1.9-1.9-3.1-4.8,1.3-7.5L83.6,94.4z"/>
	<path class="st2" d="M122,38L76.6,8.2c-6.6-4.3-15.1-4.3-21.7,0l-43,28.3c-5.5,3.6-8.8,9.7-8.8,16.3v47.1c0,6.6,3.3,12.7,8.8,16.3
		L49.5,141c2.6,1.7,5.6,2.6,8.7,2.6h10.1c3.1,0,6.2-0.9,8.8-2.7l7.2-4.8L29.1,99.8c-1.7-1.1-2.8-3.1-2.8-5.2V58c0-2.1,1-4,2.8-5.2
		l33.3-21.9c2.1-1.4,4.8-1.4,6.9,0L104,53.7L65.3,78.6c-1.4,0.9-2.3,2.5-2.3,4.1v21.7l0,0l0,0v0.3c0,0.2,0,0.4,0,0.7
		c0,0.1,0,0.3,0.1,0.4v0.1l0,0c0.3,1.9,1.4,3,3,4.1l2.2,1.5c0,0-5.5-4.2,0.9-8l0,0l52.9-34.1c1.7-1.1,2.8-3.1,2.8-5.2V43
		C124.8,41.1,123.8,39.1,122,38z"/>
	
		<linearGradient id="SVGID_00000021094836292495110220000014423196011128522649_" gradientUnits="userSpaceOnUse" x1="-2365.6057" y1="11.502" x2="-2412.3306" y2="68.6056" gradientTransform="matrix(-1 0 0 -1 -2292.2158 151.89)">
		<stop  offset="0" style="stop-color:#06908C"/>
		<stop  offset="0.1087" style="stop-color:#4DA987"/>
		<stop  offset="0.1978" style="stop-color:#6BBB81"/>
		<stop  offset="0.6042" style="stop-color:#6BBB81"/>
		<stop  offset="0.6371" style="stop-color:#6ABC89"/>
		<stop  offset="0.6914" style="stop-color:#69BD9C"/>
		<stop  offset="0.7602" style="stop-color:#66C1BB"/>
		<stop  offset="0.7655" style="stop-color:#66C1BD"/>
	</linearGradient>
	<path style="fill:url(#SVGID_00000021094836292495110220000014423196011128522649_);" d="M63.6,122.5l55.3-36.7
		c5.8-3.9,0.9-7.4,0.9-7.4l2.2,1.5c1.3,0.9,2.4,2.4,2.4,3.8V106c0,1.8-0.9,3.4-2.3,4.4l-37.8,25.9L63.6,122.5z"/>
</g>
</svg>
