<svg width="32" height="31" xmlns="http://www.w3.org/2000/svg" xmlns:xlink="http://www.w3.org/1999/xlink" xml:space="preserve" overflow="hidden"><g transform="translate(-492 -2)"><g><g><g><g><path d="M22.5 10.875 22.5 5.625 20 5.625 20 8.5 15 3.75 1.875 16.25 3.28125 17.4375 15 6.3125 26.7188 17.4375 28.125 16.25Z" fill="#FFFFFF" fill-rule="nonzero" fill-opacity="1" transform="matrix(1.06667 0 0 1 492 3)"/><path d="M5.625 16.9688 5.625 26.25 13.125 26.25 13.125 18.4375 16.875 18.4375 16.875 26.25 24.375 26.25 24.375 16.9688 15 8.0625 5.625 16.9688ZM11.25 22.1875 7.5 22.1875 7.5 18.4375 11.25 18.4375 11.25 22.1875ZM18.75 18.4375 22.5 18.4375 22.5 22.1875 18.75 22.1875 18.75 18.4375Z" fill="#FFFFFF" fill-rule="nonzero" fill-opacity="1" transform="matrix(1.06667 0 0 1 492 3)"/></g></g></g></g></g></svg>