<?xml version="1.0" encoding="UTF-8"?><svg id="a" xmlns="http://www.w3.org/2000/svg" viewBox="0 0 110.34 57.57"><defs><style>.b{fill:#eee;}</style></defs><g><path class="b" d="M77.34,42.76h-5.9l-3.92-10.59v10.59h-4.78V22.9h6.54l3.29,9.06v-9.06h4.78v19.86Z"/><path class="b" d="M94.15,42.76h-5.64l-1-5.33h-2.64l-1,5.33h-5.64l4.31-19.86h7.3l4.31,19.86Zm-7.13-8.06l-.84-5.96-.8,5.96h1.65Z"/></g><path class="b" d="M59.04,32.32c0-5.76-4.67-10.43-10.43-10.43H27.23v27.53c-10.9-.69-19.56-9.77-19.56-20.85S17.05,7.67,28.57,7.67c7.71,0,14.45,4.2,18.07,10.42h2.8c2.24,0,4.35,.52,6.24,1.44C51.88,8.2,41.16,0,28.57,0,12.81,0,0,12.82,0,28.57s12.1,27.84,27.23,28.53v.03h10.94v-14.38h10.43c5.76,0,10.43-4.67,10.43-10.43Zm-13.65,3.6h-7.22v-7.2h7.22c1.99,0,3.6,1.61,3.6,3.6s-1.61,3.6-3.6,3.6Z"/><polygon class="b" points="42.33 45.64 48.15 57.28 60.46 57.28 54.06 45.82 42.33 45.64"/><g><path class="b" d="M71.17,55.59c0,.73-.36,1.26-1.09,1.58-.59,.26-1.44,.4-2.56,.4s-2.01-.14-2.63-.43c-.74-.34-1.11-.89-1.11-1.64v-5.84c0-.73,.37-1.27,1.11-1.62,.64-.3,1.51-.45,2.63-.45s1.93,.13,2.54,.4c.74,.32,1.11,.85,1.11,1.58v2.41h-3.15v-2.39c0-.16-.05-.28-.14-.36-.09-.08-.23-.12-.41-.12-.15,0-.28,.04-.39,.12-.11,.08-.16,.2-.16,.36v5.96c0,.16,.05,.28,.14,.37,.09,.09,.23,.13,.41,.13s.32-.04,.41-.13c.09-.09,.14-.21,.14-.37v-2.35h3.15v2.38Z"/><path class="b" d="M79.25,55.59c0,.72-.38,1.25-1.13,1.58-.6,.26-1.47,.4-2.59,.4s-1.98-.14-2.59-.43c-.73-.34-1.09-.89-1.09-1.64v-5.84c0-.73,.36-1.27,1.07-1.62,.62-.3,1.49-.45,2.61-.45s1.96,.13,2.59,.4c.76,.32,1.13,.85,1.13,1.58v3.72h-4.24v2.26c0,.16,.05,.28,.14,.37,.09,.09,.23,.13,.41,.13s.32-.04,.41-.13c.09-.09,.14-.21,.14-.37v-1.95h3.15v1.98Zm-3.15-3.77v-2.22c0-.16-.05-.28-.14-.36-.09-.08-.23-.12-.41-.12-.15,0-.28,.04-.39,.12-.11,.08-.16,.2-.16,.36v2.22h1.09Z"/><path class="b" d="M87.36,57.44h-3.15v-7.85c0-.3-.18-.45-.54-.45-.18,0-.32,.04-.41,.11-.09,.07-.14,.18-.14,.34v7.85h-3.15v-9.76h3.15v.33c.18-.11,.44-.21,.78-.28,.34-.07,.73-.11,1.17-.11,.67,0,1.21,.14,1.64,.4,.43,.27,.65,.6,.65,.99v8.44Z"/><path class="b" d="M94.23,57.44h-2c-1.36,0-2.2-.14-2.51-.42-.31-.28-.46-.93-.46-1.93v-5.95h-1.41v-1.46h1.41v-1.96h3.15v1.96h1.7v1.46h-1.7v5.94c0,.29,.13,.49,.39,.6,.18,.08,.46,.12,.84,.12h.59v1.64Z"/><path class="b" d="M102.31,51.72h-3.15v-2.13c0-.3-.18-.45-.54-.45-.18,0-.32,.03-.41,.1-.09,.07-.14,.18-.14,.33v7.87h-3.15v-9.76h3.15v.32c.18-.11,.44-.21,.78-.28,.34-.07,.73-.11,1.17-.11,.67,0,1.21,.14,1.64,.4s.65,.6,.65,.99v2.72Z"/><path class="b" d="M110.34,55.59c0,.72-.38,1.25-1.13,1.58-.6,.26-1.47,.4-2.59,.4s-1.98-.14-2.59-.43c-.73-.34-1.09-.89-1.09-1.64v-5.84c0-.73,.36-1.27,1.07-1.62,.62-.3,1.49-.45,2.61-.45s1.96,.13,2.59,.4c.76,.32,1.13,.85,1.13,1.58v3.72h-4.24v2.26c0,.16,.05,.28,.14,.37,.09,.09,.23,.13,.41,.13s.32-.04,.41-.13c.09-.09,.14-.21,.14-.37v-1.95h3.15v1.98Zm-3.15-3.77v-2.22c0-.16-.05-.28-.14-.36-.09-.08-.23-.12-.41-.12-.15,0-.28,.04-.39,.12-.11,.08-.16,.2-.16,.36v2.22h1.09Z"/></g></svg>