<svg width="32" height="31" xmlns="http://www.w3.org/2000/svg" xmlns:xlink="http://www.w3.org/1999/xlink" xml:space="preserve" overflow="hidden"><g transform="translate(-784 -2)"><g><g><g><g><path d="M806.875 18C806.875 14.4375 804.5 12.5625 801.969 11.125 804.5 9.65625 806.875 7.8125 806.875 4.25L805 4.25C805 4.8125 804.906 5.34375 804.75 5.8125L795.25 5.8125C795.094 5.34375 795 4.8125 795 4.25L793.125 4.25C793.125 7.8125 795.5 9.65625 798.031 11.125 795.5 12.5625 793.125 14.4375 793.125 18 793.125 21.5938 795.5 23.4688 798.031 24.9062 795.5 26.3438 793.125 28.1875 793.125 31.75L795 31.75C795 31.1562 795.094 30.6562 795.25 30.1875L804.75 30.1875C804.906 30.6562 805 31.1562 805 31.75L806.875 31.75C806.875 28.1875 804.5 26.3438 801.969 24.9062 804.5 23.4688 806.875 21.5938 806.875 18ZM795 18C795 17.4375 795.094 16.9062 795.25 16.4375L804.781 16.4375C804.938 16.9062 805.031 17.4375 805.031 18 805.031 18.5625 804.938 19.0938 804.781 19.5625L795.25 19.5625C795.094 19.0938 795 18.5625 795 18ZM796.438 7.6875 803.531 7.6875C802.625 8.59375 801.344 9.3125 799.969 10.0625 798.625 9.3125 797.344 8.59375 796.438 7.6875ZM800 12.1875C801.375 12.9375 802.656 13.6562 803.562 14.5625L796.438 14.5625C797.344 13.6562 798.625 12.9062 800 12.1875ZM800 25.9688C801.375 26.6875 802.625 27.4062 803.531 28.3125L796.469 28.3125C797.375 27.4062 798.625 26.6875 800 25.9688ZM800 23.8438C798.594 23.0938 797.312 22.375 796.406 21.4375L803.594 21.4375C802.688 22.375 801.406 23.0938 800 23.8438Z" fill="#FFFFFF" fill-rule="nonzero" fill-opacity="1"/></g></g></g></g></g></svg>